<?xml version="1.0" encoding="UTF-8"?>
<svg id="Layer_2" data-name="Layer 2" xmlns="http://www.w3.org/2000/svg" viewBox="0 0 117.29 64">
  <defs>
    <style>
      .cls-1 {
        fill: #231f20;
        stroke-width: 0px;
      }
    </style>
  </defs>
  <path class="cls-1" d="m112.14,22.47c-1.67,0-13.01.14-13.01.14h-49.04V0h-9.32v22.61h-13.43c-3.55,0-5.29,1.74-5.29,5.15v3.62l-12.52-11.83v-11.48h11.69v11.97h9.53V5.77c0-3.83-1.95-5.77-5.77-5.77H5.77C1.95,0,0,1.95,0,5.91v14.12c0,2.09.7,3.83,2.09,5.15l19.13,18.09v12.52h-11.69v-13.01H0v15.17c0,3.9,1.95,5.84,5.77,5.84h19.2c.42,0,.77,0,1.11-.07h.21c.35.07.7.07,1.04.07h22.75V30.61l8.76-.21v33.39h9.39V29.57h19.34v9.46h-12.59c-3.48,0-5.22,1.67-5.22,5.08v14.82c0,3.41,1.67,5.08,5.08,5.08,1.46,0,12.66-.21,12.66-.21h11.62V30.61l8.77-.21v33.39h9.39V27.48c0-3.34-1.74-5.01-5.15-5.01ZM40.07,56.07h-8.83v-25.67h8.83v25.67Zm47.51.35l-8.9.28v-11.34h8.9v11.06Z"/>
</svg>